<?xml version="1.0" encoding="utf-8"?>
<!-- Generator: Adobe Illustrator 18.0.0, SVG Export Plug-In . SVG Version: 6.00 Build 0)  -->
<!DOCTYPE svg PUBLIC "-//W3C//DTD SVG 1.1//EN" "http://www.w3.org/Graphics/SVG/1.1/DTD/svg11.dtd">
<svg version="1.1" id="Layer_1" xmlns="http://www.w3.org/2000/svg" xmlns:xlink="http://www.w3.org/1999/xlink" x="0px" y="0px"
	 viewBox="0 0 1000 1000" enable-background="new 0 0 1000 1000" xml:space="preserve">
<g>
	<g>
		<path fill="#34003F" d="M797.4,532.9c0.5,4.4,1.1,9.1,1.7,13.8c4,31-3,60.4-13.6,89.2c-1.6,4.3-5,8.2-8.2,11.7
			c-21.8,23.8-45.8,45.2-71.9,64.3c-1.1,0.8-2.3,1.4-5,2.9c5.1-10.9-2.1-15.1-8.2-19.6c-6.3-4.7-12.8-9.3-19.7-14.2
			c4.3-2.5,8.3-4.8,12.1-7.1c27.9-17,54.8-35.3,78.2-58.3c22.9-22.5,25.3-34,11.6-62.9c-8-16.9-17.5-33.2-27.4-49.2
			c-4.6-7.5-5.6-14.6-4.3-22.7c2-12.2,3.8-24.5,5.9-36.7c0.3-1.7,1.7-3.3,2.5-5c1.6,1.1,3.5,1.9,4.6,3.3
			c7.4,9.7,14.4,19.7,21.9,29.3c1.7,2.1,4.6,4.4,7.1,4.5c38.2,1.8,76.1,1.2,111.7-15.5c24.2-11.4,44.7-28,63.7-46.5
			c1.2-1.2,1.6-4.4,1-6.1c-2.6-6.5-7.9-10.9-14.3-12.7c-8.6-2.4-17.5-4.5-26.4-4.8c-15.8-0.7-31.6,0.7-47.4,0
			c-24-1.2-33-9.4-36.4-33.1c-4.3-29.9,1.7-57.5,22.7-80.3c5.8-6.3,13.2-11.8,20.8-15.9c12.2-6.5,25-5.9,36.2,2.5
			c7.8,5.8,15.2,12.4,21.7,19.6c20,22.2,35,47.2,40,77.2c5.6,33.3-0.5,64.8-15.6,94.8c-0.7,1.4-1.7,2.7-2.8,3.9
			c-35.2,36.8-77.3,61.5-127.4,72.1c-5.6,1.2-11.5,1.3-17.3,1.6C809.4,533.1,803.8,532.9,797.4,532.9z M924.6,338.5
			c-5.7-6-11.3-12.8-17.8-18.6c-7.9-6.9-17.6-8.3-27.7-6.3c-5.8,1.1-10.1,4.6-12.2,10.4c-2.5,6.9-1.3,10,5.8,12.2
			c3.8,1.2,7.8,2,11.7,2.1C897.6,338.7,910.8,338.5,924.6,338.5z"/>
		<path fill="#34003F" d="M672.5,520.1c42.5,41.6,47.8,84.9,8.5,127.1c-14.5,15.6-33.1,25.8-53.5,32c-19.4,5.8-37.4,1.8-53.1-10.6
			c-24.9-19.5-39.9-45.3-44.5-76.4c-5.5-37-10-74.1-14.5-111.2c-5.2-42.7-10.5-85.4-14.9-128.1c-4.6-45.1-17.3-88.2-29.8-131.4
			c-1.2-4.1-0.8-9,0.1-13.3c2-9.8,4.7-19.4,7.3-29.1c0.4-1.5,1.7-3.7,2.8-3.9c1.3-0.2,3.5,1.2,4.3,2.4c2.8,4.8,5.6,9.7,7.5,14.9
			c14.2,38.8,24.1,78.8,29.7,119.6c6.2,45.8,11.5,91.7,16.4,137.6c3,27.6,4.5,55.4,6.6,83.2c1.7,22.1,6.1,43.6,16.7,63.3
			c3.8,7.2,8.7,13.9,13.7,20.4c14.3,18.4,32.9,24.1,55.5,18.5c20.1-5,38.4-13.7,54.8-26.2c8.6-6.5,8.9-8.4,2.6-17.1
			c-8.6-11.8-17.4-23.5-26.4-34.9c-2.3-2.9-2.6-5.3-1.2-8.6C664.9,539.2,668.6,529.7,672.5,520.1z"/>
		<path fill="#34003F" d="M640.4,696c-2.2,5.1-3.9,9.1-5.6,13.1c-2.9,7.3-2.1,10.2,4.6,14.6c7.5,4.9,15,9.6,22.6,14.4
			c0.1,0.7,0.1,1.3,0.2,2c-14.2,6.1-28.1,12.8-42.6,18.2c-26.1,9.7-53,15-81.1,13c-34.4-2.5-57.8-20.2-68.6-52.6
			c-4.9-14.8-8.2-30.7-9.1-46.2c-3.1-52.9,3-104.6,23.4-154c2.6-6.3,5.6-12.4,8.6-18.4c1.4-2.8,3.1-5.7,5.2-8
			c1.6-1.7,4.1-2.6,6.3-3.9c0.6,2.4,2,5,1.5,7.1c-1.4,6.2-3.3,12.3-5.6,18.2c-14.7,36.8-22.7,74.9-20.9,114.7
			c0.7,15,2.8,29.8,8.2,44c10.4,27.3,30.9,41.8,60,42.3c28.8,0.6,56.4-5.2,83.3-15C633.5,698.6,636.3,697.5,640.4,696z"/>
		<path fill="#34003F" d="M902.9,144.9c-5.8-4.4-11-8.4-17-12.9c-9.3,17.6-23,29.4-38.2,39.7c-25.4,17.4-53,30.4-81.9,40.8
			c-7.8,2.8-15.8,5.3-23.8,7.9c-0.3-0.4-0.7-0.8-1-1.2c1.8-2.1,3.3-4.6,5.5-6.1c5.3-3.6,10.9-6.6,16.4-9.9
			c29.5-17.6,59.2-34.9,88.3-53.1c9.1-5.7,16.7-13.9,24.8-20.9c-7.1-5.7-13.6-9.8-18.6-15.2c-11-11.8-11.2-24-1.3-36.8
			c2.8-3.6,6-7.1,9.5-9.9c5.1-4.2,10.5-8,16.1-11.5c9.1-5.7,20.8-0.3,21.2,10.5c0.3,8.7-1.6,17.4-2.6,26.1c-0.2,1.4-0.5,2.8-0.9,4.1
			c-2.3,7.4-2.1,12.9,6.4,17.5c9.9,5.4,10,9.1,4.3,19C907.9,137.2,905.3,141.2,902.9,144.9z M886.4,102.5c3.7-6.8,2.1-13.1,0.1-19.4
			c-1.7-5.3-5.8-5.9-10-4.8c-3.1,0.8-6.1,3-8.5,5.3c-1.1,1.1-1.3,4.5-0.3,5.8C872.4,95.6,878.4,100.1,886.4,102.5z"/>
		<path fill="#34003F" d="M917.9,244.2c-4.4-2.9-8.1-5.5-11.9-8.1c-5.6-3.8-11-8-16.8-11.5c-12.3-7.3-11.9-4.5-5.5-18.9
			c2.9-6.5,6.7-12.7,10.1-19c1.9-3.5,4.7-4.3,7.9-2.1c10.7,7.2,21.6,14.3,32,22c1.5,1.1,1.9,5.1,1.2,7.4
			C932,225.3,925.5,234.6,917.9,244.2z"/>
		<path fill="#34003F" d="M696.3,707.9c-2.9,12.9-9.4,22.9-17,32.3c-0.6,0.7-3.4,0.4-4.6-0.3c-10.9-7-21.8-14.1-32.5-21.5
			c-1.4-1-2.8-4.3-2.2-5.6c4.4-9.6,9.3-19,14.1-28.4c1.7-3.4,4.4-4,7.4-2c10.9,7.3,21.8,14.7,32.6,22.2
			C695.3,705.4,695.8,707.1,696.3,707.9z"/>
		<path fill="#34003F" d="M860.3,244.2c-5.4-3.7-10.4-7.2-15.5-10.6c-6.3-4.2-12.7-8.4-19.2-12.3c-3.5-2.1-4.7-4.4-2.7-8.2
			c4.1-8,7.9-16.2,12.1-24.1c2.6-4.9,6.6-6.8,11.8-3.1c9.5,6.6,19.2,12.9,28.5,19.9c1.8,1.3,3.1,5.3,2.5,7.5
			C874.7,224.9,868.3,234.7,860.3,244.2z"/>
		<g>
			<path fill="#34003F" d="M477,394.6L477,394.6l-0.1-0.1c-1.6-2.6-3.3-5.2-5.2-7.8c-0.2,0.1-0.4,0.2-0.5,0.2l-15.6-20.6l-12.7,7.1
				c4.3-2.4,8.5-4.7,12.7-7.1c-9.1-12.1-17.7-23.5-26.3-34.9c0.5-0.5,0.9-0.9,1.4-1.4c1.8,0.2,3.5,0.7,5.3,0.6
				c4.7-0.2,11.4,3.1,13.3-2.3c0.9-2.6-4.2-8.5-7.8-11.4c-11.5-9.3-23.5-17.9-35.4-26.7c-4.6-3.4-6.7-2.8-7.5,2.8
				c-1.5,10.9-2.6,21.8-3.6,32.7c-0.1,1.3,1.1,3.8,1.7,3.8c4.7,0.1,5.1,3.9,6.2,6.9c6,16.2,14.4,31,24.9,45.2c3-1.7,6-3.4,9-5l-9,5
				l19.9,25.5l0,0c7.9,10.5,15.8,21,23.6,31.6c2.7,3.7,2.8,7.5-1,10.6c-15.2,12.7-31.8,23.4-51.6,26.8c-47.9,8.3-94.2,21.4-139.1,40
				c-12.1,5-20,12.5-22.3,25.6c-1,5.5-2.6,10.9-4.4,16.2c-2.5,7.7,0.3,13.8,6.3,17.9c5.3,3.7,11.4,6.6,17.6,8.5
				c19.9,6,40,11.1,59.9,17.1c10.7,3.2,21.3,7,31.3,11.8c9.7,4.7,9.9,8.9,1.2,14.9c-12.7,8.7-25.6,17.2-38.8,25
				c-33.7,19.8-69,36.2-105.8,49.4c-49.8,15.1-75.1,16.9-86.5,16.4c0-0.1,0-0.1,0-0.2c-5.6-0.7-10.5-1.2-15.4-2.1
				C81,708.6,52.8,685,41,643.5c-6.4-22.4-4.9-45.3,0.2-67.8c5.5-24.1,12.5-47.9,18.6-71.9c1.2-4.6,1.7-9.3,2.6-13.9
				c-2.2,0-2.9,0.4-3.3,1c-1.4,2.2-2.9,4.3-4.1,6.6c-26.4,50.2-37.3,103.6-31.1,160c3.4,30.9,15.7,57.8,40.5,77.7
				c14.7,11.8,31,20,49.1,24.5l0,0c53.6,15.5,118.7-19.1,118.7-19.1l0,0c37.3-15.3,73-33.9,107.6-54.6c11.3-6.8,22.1-14.5,32.6-22.5
				c5.1-3.9,10.4-8.9,13.1-14.5c8.2-17.3,13.8-35.2,12.1-54.9c-1.1-12.7-6.5-21.8-18.3-26.4c-8.1-3.2-16.6-5.7-25-8.2
				c-12.6-3.7-25.3-7.1-38.9-10.8c1.8-1,2.6-1.5,3.4-1.9c28.6-14.2,59.5-21.3,90.3-27.5c35.4-7.1,59.2-26.9,73.2-59
				C492.3,437,489.4,415.1,477,394.6z"/>
			<path fill="#34003F" d="M346.7,408.2c6,3.6,11.6,7.8,17.4,11.8c3.6,2.5,7.2,4.9,11.2,7.7c8.2-9.9,15-20.2,18-32.4
				c0.3-1.4-0.3-3.9-1.4-4.7c-10.9-7.7-22-15.2-33.1-22.6c-3.2-2.1-5.6-0.8-7.4,2.3c-3.4,6.3-7.4,12.4-10.2,19
				C334.9,403.5,334,400.7,346.7,408.2z"/>
		</g>
	</g>
	<g>
		<path fill="#34003F" d="M129.7,892.4l42.2,55.7h-36.5L101.1,900v48.2H70.8V839.2h30.3v47.1l34.6-47.1h36.2L129.7,892.4z"/>
		<path fill="#34003F" d="M203,839.2v108.9h-30.3V839.2H203z"/>
		<path fill="#34003F" d="M287.1,933.2c-3.1,4.9-7.6,8.8-13.5,11.7c-6,2.9-13.1,4.3-21.4,4.3c-12.6,0-23-3-31.2-9.1
			c-8.2-6.1-12.6-14.7-13.3-25.8h32.2c0.3,3.8,1.5,6.6,3.5,8.5c2.1,1.8,4.6,2.8,7.5,2.8c2.7,0,4.7-0.7,6.2-2
			c1.5-1.3,2.2-3.2,2.2-5.7c0-3.3-1.5-5.8-4.5-7.6c-3-1.8-7.7-3.8-14.2-5.9c-6.9-2.4-12.5-4.7-17-6.9c-4.5-2.3-8.3-5.6-11.5-10.2
			c-3.2-4.5-4.8-10.3-4.8-17.4c0-6.8,1.7-12.6,5.2-17.5c3.5-4.9,8.3-8.6,14.3-11.1c6.1-2.5,12.9-3.8,20.6-3.8
			c12.5,0,22.5,3,29.9,8.8c7.4,5.9,11.5,14.2,12.2,24.8h-32.5c-0.4-3.4-1.5-5.9-3.2-7.5c-1.7-1.6-3.9-2.5-6.7-2.5
			c-2.4,0-4.2,0.6-5.5,1.8s-2,3.1-2,5.5c0,3.1,1.5,5.5,4.4,7.2c2.9,1.7,7.5,3.7,13.8,5.8c6.9,2.5,12.6,4.9,17.1,7.2
			c4.5,2.4,8.4,5.8,11.7,10.3c3.3,4.5,4.9,10.4,4.9,17.5C291.7,922.8,290.2,928.3,287.1,933.2z"/>
		<path fill="#34003F" d="M377.7,839.2v24.2h-29.4v84.8h-30.2v-84.8h-29.1v-24.2H377.7z"/>
		<path fill="#34003F" d="M459.1,844.7c8.5,4.8,15.1,11.4,20,19.9c4.9,8.5,7.3,18.1,7.3,28.8c0,10.7-2.5,20.3-7.4,28.8
			c-4.9,8.5-11.6,15.2-20.1,19.9c-8.5,4.8-17.8,7.2-27.9,7.2c-10.2,0-19.5-2.4-28-7.2c-8.5-4.8-15.2-11.4-20.2-19.9
			c-4.9-8.5-7.4-18.1-7.4-28.8c0-10.7,2.5-20.3,7.4-28.8c4.9-8.5,11.6-15.2,20.2-19.9c8.5-4.8,17.8-7.2,28-7.2
			C441.2,837.5,450.6,839.9,459.1,844.7z M412.8,873c-4.4,5-6.6,11.8-6.6,20.4c0,8.4,2.2,15.1,6.6,20.2c4.4,5,10.5,7.5,18.2,7.5
			c7.6,0,13.6-2.5,18-7.5c4.4-5,6.6-11.7,6.6-20.2c0-8.6-2.2-15.4-6.5-20.4c-4.4-5-10.4-7.5-18.1-7.5
			C423.3,865.5,417.2,868,412.8,873z"/>
		<path fill="#34003F" d="M591.3,948.1H561l-40-60.8v60.8h-30.3V839.4H521l40,61.5v-61.5h30.3V948.1z"/>
		<path fill="#34003F" d="M667.6,911.7v36.5h-30.3V839.2h45.2c13.1,0,23.2,3.3,30.1,9.9c6.9,6.6,10.4,15.5,10.4,26.5
			c0,6.9-1.5,13-4.6,18.5c-3.1,5.4-7.7,9.7-13.8,12.8c-6.1,3.1-13.5,4.7-22.1,4.7H667.6z M692.4,875.7c0-8-4.4-12-13.2-12h-11.5
			v24.2h11.5C688,887.8,692.4,883.8,692.4,875.7z"/>
		<path fill="#34003F" d="M794.4,930h-38.6l-6,18.2h-31.8l39.9-108.5h34.9l39.7,108.5h-32L794.4,930z M786.8,907.2l-11.7-35.4
			l-11.8,35.4H786.8z"/>
		<path fill="#34003F" d="M931.5,839.2L893,913.5v34.6h-30.2v-34.6l-38.5-74.3H859l19.2,41.5l19.1-41.5H931.5z"/>
	</g>
</g>
</svg>
